<?xml version="1.0" encoding="UTF-8" standalone="no"?>
<svg
   xmlns:ooo="http://xml.openoffice.org/svg/export"
   xmlns:dc="http://purl.org/dc/elements/1.1/"
   xmlns:cc="http://creativecommons.org/ns#"
   xmlns:rdf="http://www.w3.org/1999/02/22-rdf-syntax-ns#"
   xmlns:svg="http://www.w3.org/2000/svg"
   xmlns="http://www.w3.org/2000/svg"
   xmlns:sodipodi="http://sodipodi.sourceforge.net/DTD/sodipodi-0.dtd"
   xmlns:inkscape="http://www.inkscape.org/namespaces/inkscape"
   version="1.2"
   width="290"
   height="248.5714"
   viewBox="0 0 290 248.57139"
   preserveAspectRatio="xMidYMid"
   clip-path="url(#presentation_clip_path)"
   xml:space="preserve"
   id="svg212"
   sodipodi:docname="millikan-versuch-gewichts-und-auftriebskraft-skizze-0.svg"
   style="fill-rule:evenodd;stroke-width:28.22200012;stroke-linejoin:round"
   inkscape:version="0.92.1 r15371"><metadata
     id="metadata216"><rdf:RDF><cc:Work
         rdf:about=""><dc:format>image/svg+xml</dc:format><dc:type
           rdf:resource="http://purl.org/dc/dcmitype/StillImage" /><dc:title></dc:title></cc:Work></rdf:RDF></metadata><sodipodi:namedview
     pagecolor="#ffffff"
     bordercolor="#666666"
     borderopacity="1"
     objecttolerance="10"
     gridtolerance="10"
     guidetolerance="10"
     inkscape:pageopacity="0"
     inkscape:pageshadow="2"
     inkscape:window-width="1920"
     inkscape:window-height="1001"
     id="namedview214"
     showgrid="false"
     units="px"
     fit-margin-top="0"
     fit-margin-left="0"
     fit-margin-right="0"
     fit-margin-bottom="0"
     inkscape:zoom="1.7344907"
     inkscape:cx="142.6896"
     inkscape:cy="165.20449"
     inkscape:window-x="-9"
     inkscape:window-y="-9"
     inkscape:window-maximized="1"
     inkscape:current-layer="svg212" /><defs
     class="ClipPathGroup"
     id="defs5"><clipPath
       id="presentation_clip_path"
       clipPathUnits="userSpaceOnUse"><rect
         x="0"
         y="0"
         width="4200"
         height="3600"
         id="rect2" /></clipPath></defs><defs
     class="TextShapeIndex"
     id="defs9"><g
       ooo:slide="id1"
       ooo:id-list="id3 id4 id5 id6 id7 id8 id9 id10 id11 id12 id13 id14 id15 id16 id17 id18 id19 id20 id21 id22 id23 id24"
       id="g7" /></defs><defs
     class="EmbeddedBulletChars"
     id="defs38"><g
       id="bullet-char-template(57356)"
       transform="matrix(4.8828125e-4,0,0,-4.8828125e-4,0,0)"><path
         d="M 580,1141 1163,571 580,0 -4,571 Z"
         id="path11"
         inkscape:connector-curvature="0" /></g><g
       id="bullet-char-template(57354)"
       transform="matrix(4.8828125e-4,0,0,-4.8828125e-4,0,0)"><path
         d="M 8,1128 H 1137 V 0 H 8 Z"
         id="path14"
         inkscape:connector-curvature="0" /></g><g
       id="bullet-char-template(10146)"
       transform="matrix(4.8828125e-4,0,0,-4.8828125e-4,0,0)"><path
         d="M 174,0 602,739 174,1481 1456,739 Z M 1358,739 309,1346 659,739 Z"
         id="path17"
         inkscape:connector-curvature="0" /></g><g
       id="bullet-char-template(10132)"
       transform="matrix(4.8828125e-4,0,0,-4.8828125e-4,0,0)"><path
         d="M 2015,739 1276,0 H 717 l 543,543 H 174 v 393 h 1086 l -543,545 h 557 z"
         id="path20"
         inkscape:connector-curvature="0" /></g><g
       id="bullet-char-template(10007)"
       transform="matrix(4.8828125e-4,0,0,-4.8828125e-4,0,0)"><path
         d="m 0,-2 c -7,16 -16,29 -25,39 l 381,530 c -94,256 -141,385 -141,387 0,25 13,38 40,38 9,0 21,-2 34,-5 21,4 42,12 65,25 l 27,-13 111,-251 280,301 64,-25 24,25 c 21,-10 41,-24 62,-43 C 886,937 835,863 770,784 769,783 710,716 594,584 L 774,223 c 0,-27 -21,-55 -63,-84 l 16,-20 C 717,90 699,76 672,76 641,76 570,178 457,381 L 164,-76 c -22,-34 -53,-51 -92,-51 -42,0 -63,17 -64,51 -7,9 -10,24 -10,44 0,9 1,19 2,30 z"
         id="path23"
         inkscape:connector-curvature="0" /></g><g
       id="bullet-char-template(10004)"
       transform="matrix(4.8828125e-4,0,0,-4.8828125e-4,0,0)"><path
         d="M 285,-33 C 182,-33 111,30 74,156 52,228 41,333 41,471 c 0,78 14,145 41,201 34,71 87,106 158,106 53,0 88,-31 106,-94 l 23,-176 c 8,-64 28,-97 59,-98 l 735,706 c 11,11 33,17 66,17 42,0 63,-15 63,-46 V 965 c 0,-36 -10,-64 -30,-84 L 442,47 C 390,-6 338,-33 285,-33 Z"
         id="path26"
         inkscape:connector-curvature="0" /></g><g
       id="bullet-char-template(9679)"
       transform="matrix(4.8828125e-4,0,0,-4.8828125e-4,0,0)"><path
         d="M 813,0 C 632,0 489,54 383,161 276,268 223,411 223,592 c 0,181 53,324 160,431 106,107 249,161 430,161 179,0 323,-54 432,-161 108,-107 162,-251 162,-431 0,-180 -54,-324 -162,-431 C 1136,54 992,0 813,0 Z"
         id="path29"
         inkscape:connector-curvature="0" /></g><g
       id="bullet-char-template(8226)"
       transform="matrix(4.8828125e-4,0,0,-4.8828125e-4,0,0)"><path
         d="m 346,457 c -73,0 -137,26 -191,78 -54,51 -81,114 -81,188 0,73 27,136 81,188 54,52 118,78 191,78 73,0 134,-26 185,-79 51,-51 77,-114 77,-187 0,-75 -25,-137 -76,-188 -50,-52 -112,-78 -186,-78 z"
         id="path32"
         inkscape:connector-curvature="0" /></g><g
       id="bullet-char-template(8211)"
       transform="matrix(4.8828125e-4,0,0,-4.8828125e-4,0,0)"><path
         d="M -4,459 H 1135 V 606 H -4 Z"
         id="path35"
         inkscape:connector-curvature="0" /></g></defs><defs
     class="TextEmbeddedBitmaps"
     id="defs40" /><g
     id="g45"
     transform="matrix(0.03779527,0,0,0.03779527,0,112.5084)"><g
       id="id2"
       class="Master_Slide"><g
         id="bg-id2"
         class="Background" /><g
         id="bo-id2"
         class="BackgroundObjects" /></g></g><path
     d="M 69.047619,13.8095 H 0 V 0 h 138.09524 v 13.8095 z"
     id="path47"
     inkscape:connector-curvature="0"
     style="fill:#c0c0c0;stroke:none;stroke-width:1.94866192" /><path
     d="m 69.047619,110.4762 c 7.802381,0 13.809524,6.0071 13.809524,13.8095 0,7.8024 -6.007143,13.8095 -13.809524,13.8095 -7.802381,0 -13.809524,-6.0071 -13.809524,-13.8095 0,-7.8024 6.007143,-13.8095 13.809524,-13.8095 z m -13.809524,0 z m 27.688096,27.6881 z"
     id="path52"
     inkscape:connector-curvature="0"
     style="fill:#ffcc00;stroke:#ffcc00;stroke-width:1.94866192" /><path
     d="M 69.047619,248.5714 H 0 v -13.8095 h 138.09524 v 13.8095 z"
     id="path57"
     inkscape:connector-curvature="0"
     style="fill:#c0c0c0;stroke:none;stroke-width:1.94866192" /><path
     d="M 69.047619,124.2857 V 111.5119"
     id="path62"
     inkscape:connector-curvature="0"
     style="fill:#008000;fill-opacity:1;stroke:#008000;stroke-width:1.94866192" /><path
     d="m 69.047619,96.6666 -5.178572,15.5358 h 10.357144 z"
     id="path64"
     inkscape:connector-curvature="0"
     style="fill:#008000;fill-opacity:1;stroke:#008000;stroke-width:1.94899988;stroke-miterlimit:4;stroke-dasharray:none" /><path
     d="M 220.95238,13.8095 H 151.90476 V 0 H 290 v 13.8095 z"
     id="path98"
     inkscape:connector-curvature="0"
     style="fill:#c0c0c0;stroke:none;stroke-width:1.94866192" /><path
     d="m 220.95238,110.4762 c 7.80238,0 13.80952,6.0071 13.80952,13.8095 0,7.8024 -6.00714,13.8095 -13.80952,13.8095 -7.80238,0 -13.80952,-6.0071 -13.80952,-13.8095 0,-7.8024 6.00714,-13.8095 13.80952,-13.8095 z m -13.80952,0 z m 27.68809,27.6881 z"
     id="path103"
     inkscape:connector-curvature="0"
     style="fill:#ffcc00;stroke:#ffcc00;stroke-width:1.94866192" /><path
     d="M 220.95238,248.5714 H 151.90476 V 234.7619 H 290 v 13.8095 z"
     id="path108"
     inkscape:connector-curvature="0"
     style="fill:#c0c0c0;stroke:none;stroke-width:1.94866192" /><path
     d="m 220.95238,124.2857 v 54.2024"
     id="path113"
     inkscape:connector-curvature="0"
     style="fill:#008000;fill-opacity:1;stroke:#008000;stroke-width:1.94899988;stroke-miterlimit:4;stroke-dasharray:none" /><path
     d="m 220.95238,193.3333 5.17857,-15.5357 h -10.35714 z"
     id="path115"
     inkscape:connector-curvature="0"
     style="fill:#008000;fill-opacity:1;stroke:#008000;stroke-width:1.94899988;stroke-miterlimit:4;stroke-dasharray:none" /><path
     d="m 218.19048,121.5238 5.52381,5.5238"
     id="path120"
     inkscape:connector-curvature="0"
     style="fill:none;stroke:#000000;stroke-width:1.94866192" /><path
     d="m 218.19048,127.0476 5.52381,-5.5238"
     id="path125"
     inkscape:connector-curvature="0"
     style="fill:none;stroke:#000000;stroke-width:1.94866192" /><path
     d="m 69.047619,124.2857 v 81.8214"
     id="path188"
     inkscape:connector-curvature="0"
     style="fill:#008000;fill-opacity:1;stroke:#008000;stroke-width:1.94899988;stroke-miterlimit:4;stroke-dasharray:none" /><path
     d="m 69.047619,220.9524 5.178572,-15.5358 H 63.869047 Z"
     id="path190"
     inkscape:connector-curvature="0"
     style="fill:#008000;fill-opacity:1;stroke:#008000;stroke-width:1.94899988;stroke-miterlimit:4;stroke-dasharray:none" /><path
     d="m 66.285714,121.5238 5.52381,5.5238"
     id="path195"
     inkscape:connector-curvature="0"
     style="fill:none;stroke:#000000;stroke-width:1.94866192" /><path
     d="m 66.285714,127.0476 5.52381,-5.5238"
     id="path200"
     inkscape:connector-curvature="0"
     style="fill:none;stroke:#000000;stroke-width:1.94866192" /><g
     id="g1626"
     transform="matrix(0.03779527,0,0,0.03779527,31.059457,119.9199)"><path
       d="m 1306.4665,1538.9463 q -11.2504,0 -11.2504,-6.6178 0,-1.3236 1.9854,-9.265 2.6471,-10.5886 5.2943,-11.9122 2.6471,-1.3235 15.221,-1.9853 17.8682,0 39.7071,-1.9854 9.265,-1.9853 12.574,-7.9414 1.3235,-3.3089 46.9867,-185.9616 45.6632,-182.6527 46.325,-185.2998 0,-4.6325 -2.6472,-4.6325 -5.2943,-1.9854 -35.0746,-3.309 h -20.5153 q -3.9707,-3.9707 -3.9707,-5.2942 0,-1.3236 1.3235,-11.2504 2.6472,-11.2503 6.6179,-13.8975 h 356.7022 q 4.6324,2.6472 4.6324,7.2797 0,3.3089 -8.6032,74.1199 -8.6032,70.811 -9.265,72.7964 -1.3235,4.6325 -13.2357,4.6325 h -7.9414 q -4.6325,-3.309 -4.6325,-8.6033 0,-0.6617 1.9854,-15.8828 1.9853,-15.2211 1.9853,-35.0746 0,-19.8536 -4.6325,-32.4275 -4.6325,-12.5739 -12.5739,-20.5153 -7.9414,-7.9414 -24.486,-10.5886 -16.5446,-2.6471 -33.7511,-4.6325 -17.2064,-1.9853 -47.6485,-0.6618 h -15.221 q -54.2664,0.6618 -57.5754,1.9854 -3.3089,1.3236 -4.6324,5.2943 -0.6618,0.6618 -22.5007,86.6938 l -21.1772,85.3703 h 36.3982 q 1.9854,0 15.2211,0 13.2357,0 18.53,-0.6618 5.2942,-0.6618 14.5592,-1.9853 9.265,-1.3236 15.8829,-4.6325 6.6178,-3.309 11.2503,-7.9415 8.6032,-7.9414 14.5593,-21.8389 5.9561,-13.8974 8.6032,-25.1478 2.6471,-11.2503 3.3089,-11.9121 1.9854,-3.309 12.5739,-3.309 h 7.9415 q 4.6325,3.309 4.6325,6.6179 0,1.9854 -20.5154,86.6938 -20.5153,84.7085 -22.5007,87.3557 -1.3235,4.6325 -13.2357,4.6325 h -7.9414 q -4.6325,-3.9707 -4.6325,-7.9414 0,-1.9854 3.3089,-14.5593 3.309,-12.5739 3.309,-26.4714 0,-19.1918 -13.2357,-23.8243 -13.2357,-4.6325 -58.8989,-4.6325 h -36.3982 l -21.1771,84.0467 q -21.1771,82.0614 -21.1771,86.0321 0,9.265 58.8988,9.265 h 16.5447 q 3.9707,3.9707 3.9707,4.6325 0,0.6618 -1.3236,13.2357 -2.6471,8.6032 -6.6179,12.5739 h -11.2503 q -27.1332,-1.3236 -99.9296,-1.3236 -43.016,0 -65.5167,0 -22.5007,0 -25.1478,0.6618 z"
       id="path2"
       inkscape:connector-curvature="0"
       style="fill:#000000;fill-rule:evenodd;stroke:#000000;stroke-width:0.66178513;stroke-linejoin:round" /><path
       d="m 1696.9197,930.76583 q 0,-5.29428 3.309,-9.26499 3.3089,-3.97071 9.9267,-3.97071 6.6179,0 9.9268,5.29428 3.3089,5.29428 5.2943,12.57392 1.9853,7.27964 8.6032,17.8682 6.6178,10.58856 17.8682,17.8682 7.2796,4.63249 7.2796,11.91213 0,5.95606 -4.6325,9.92677 -4.6325,3.97071 -11.2503,6.61786 -6.6179,2.64711 -19.8536,12.57391 -13.2357,9.9268 -25.1478,26.4714 -9.265,9.9268 -14.5593,9.9268 -5.2943,0 -9.265,-3.9707 -3.9707,-3.9707 -3.9707,-9.265 0,-5.2943 7.2797,-15.2211 7.2796,-9.9268 15.221,-16.5446 7.9414,-6.61786 8.6032,-7.27964 H 1588.387 l -113.1653,-0.66179 q -0.6618,-0.66178 -1.9853,-1.98535 -1.3236,-1.32357 -3.309,-1.98536 -1.9853,-0.66178 -1.9853,-3.30892 0,-2.64714 -1.3236,-5.29428 0,-4.6325 8.6032,-13.2357 h 237.5809 q -15.8829,-25.14784 -15.8829,-39.04533 z"
       id="path4"
       inkscape:connector-curvature="0"
       style="fill:#000000;fill-rule:evenodd;stroke:#000000;stroke-width:0.66178513;stroke-linejoin:round" /><path
       d="m 1805.2791,1482.0586 q 0,-40.2378 15.4401,-73.9253 15.4401,-33.6875 39.77,-53.8065 24.3298,-20.1189 50.9991,-30.8802 26.6693,-10.7613 50.5313,-11.2292 1.4036,0 4.2109,0 2.8073,0 3.7431,0.4679 42.5773,0 75.329,31.816 l 6.0825,5.6146 14.0364,-18.2474 q 12.6328,-17.3116 14.5044,-19.1832 0.4679,0 1.8715,0 1.4036,0 2.8073,-0.4679 h 1.8715 q 1.4037,0 4.211,2.8073 v 131.007 l -2.8073,2.8073 h -15.908 q -2.8073,-2.8073 -3.2752,-7.954 -4.2109,-38.3663 -22.4583,-66.4392 -18.2474,-28.073 -44.4488,-36.9627 -8.8898,-3.2752 -23.3941,-3.2752 -11.6971,0 -23.3941,1.8715 -11.6971,1.8716 -28.073,9.8255 -16.3758,7.954 -29.0087,19.1832 -12.6328,11.2292 -22.9262,34.1554 -10.2934,22.9262 -13.1007,50.5313 -1.8715,19.651 -1.8715,35.559 0,35.559 8.8898,62.6962 8.8897,27.1372 21.5225,42.1094 12.6328,14.9722 29.9445,24.7977 17.3116,9.8256 31.816,12.6329 14.5043,2.8072 28.5408,3.2751 21.9904,0 38.3663,-9.8255 16.3759,-9.8255 21.5226,-25.7335 1.4036,-4.6788 1.4036,-28.0729 v -24.3299 q -0.4679,-0.4679 -2.3394,-1.8715 -1.8715,-1.4037 -2.8073,-1.8716 -0.9357,-0.4678 -4.2109,-1.4036 -3.2752,-0.9358 -7.4861,-0.9358 -4.211,0 -11.2292,-0.4678 -7.0182,-0.4679 -18.2474,-0.4679 h -12.1649 v -21.5226 h 5.6145 l 74.8612,1.4036 q 49.5955,0 55.2101,-1.4036 h 3.743 v 21.5226 h -6.5503 q -21.9905,0 -24.7978,5.6146 -0.9357,1.8715 -0.9357,50.0633 v 47.724 q -2.8073,2.8073 -4.211,2.8073 -1.8715,0 -8.4219,-4.6788 -10.2934,-7.0183 -18.2474,-14.9722 l -6.0824,-5.6146 q -7.4861,12.6328 -29.4766,23.862 -21.9905,11.2291 -55.2101,11.697 -41.6415,0 -78.6042,-20.5868 -36.9627,-20.5868 -60.8246,-60.3568 -23.862,-39.77 -24.3299,-89.3655 z"
       id="path6"
       inkscape:connector-curvature="0"
       style="fill:#000000;fill-rule:evenodd;stroke:#000000;stroke-width:0.46788207;stroke-linejoin:round" /></g><g
     style="fill:#000000;fill-rule:evenodd;stroke:#000000;stroke-width:0;stroke-linejoin:round"
     id="g14"
     transform="matrix(0.02501235,0,0,-0.02501235,79.237123,107.1956)"><path
       style="stroke-width:1"
       inkscape:connector-curvature="0"
       id="path8"
       d="m 48,1 q -17,0 -17,10 0,2 3,14 4,16 8,18 4,2 23,3 27,0 60,3 14,3 19,12 2,5 71,281 69,276 70,280 0,7 -4,7 -8,3 -53,5 h -31 q -6,6 -6,8 0,2 2,17 4,17 10,21 h 539 q 7,-4 7,-11 0,-5 -13,-112 -13,-107 -14,-110 -2,-7 -20,-7 h -12 q -7,5 -7,13 0,1 3,24 3,23 3,53 0,30 -7,49 -7,19 -19,31 -12,12 -37,16 -25,4 -51,7 -26,3 -72,1 h -23 q -82,-1 -87,-3 -5,-2 -7,-8 -1,-1 -34,-131 L 320,363 h 55 q 3,0 23,0 20,0 28,1 8,1 22,3 14,2 24,7 10,5 17,12 13,12 22,33 9,21 13,38 4,17 5,18 3,5 19,5 h 12 q 7,-5 7,-10 0,-3 -31,-131 -31,-128 -34,-132 -2,-7 -20,-7 h -12 q -7,6 -7,12 0,3 5,22 5,19 5,40 0,29 -20,36 -20,7 -89,7 H 309 L 277,190 Q 245,66 245,60 245,46 334,46 h 25 q 6,-6 6,-7 0,-1 -2,-20 Q 359,6 353,0 H 336 Q 295,2 185,2 120,2 86,2 52,2 48,1 Z" /><path
       style="stroke-width:1"
       inkscape:connector-curvature="0"
       id="path10"
       transform="translate(761,226)"
       d="m -123,694 q 0,8 5,14 5,6 15,6 10,0 15,-8 5,-8 8,-19 3,-11 13,-27 10,-16 27,-27 11,-7 11,-18 0,-9 -7,-15 -7,-6 -17,-10 -10,-4 -30,-19 -20,-15 -38,-40 -14,-15 -22,-15 -8,0 -14,6 -6,6 -6,14 0,8 11,23 11,15 23,25 12,10 13,11 h -171 l -171,1 q -1,1 -3,3 -2,2 -5,3 -3,1 -3,5 0,4 -2,8 0,7 13,20 h 359 q -24,38 -24,59 z" /><path
       style="stroke-width:1"
       inkscape:connector-curvature="0"
       id="path12"
       transform="matrix(0.707,0,0,0.707,762.146,-162.61)"
       d="M 255,0 Q 240,3 140,3 48,3 39,0 h -7 v 46 h 15 q 72,3 92,42 1,3 53,157 52,154 103,308 51,154 53,155 3,8 18,8 h 10 q 20,-1 24,-7 2,-2 108,-319 L 617,67 q 7,-13 19,-16 12,-3 51,-5 h 30 V 0 h -9 Q 699,3 581,3 458,3 437,0 h -10 v 46 h 13 q 70,0 70,18 0,2 -24,74 l -24,71 H 229 L 209,150 Q 189,91 189,85 189,72 209,59 229,46 259,46 h 5 V 0 Z M 447,255 345,557 244,256 q 0,-1 101,-1 z" /></g><g
     style="fill:#000000;fill-rule:evenodd;stroke:#000000;stroke-width:0;stroke-linejoin:round"
     id="g26"
     transform="matrix(0.02501235,0,0,-0.02501235,229.62512,164.2729)"><path
       style="stroke-width:1"
       inkscape:connector-curvature="0"
       id="path16"
       d="m 48,1 q -17,0 -17,10 0,2 3,14 4,16 8,18 4,2 23,3 27,0 60,3 14,3 19,12 2,5 71,281 69,276 70,280 0,7 -4,7 -8,3 -53,5 h -31 q -6,6 -6,8 0,2 2,17 4,17 10,21 h 539 q 7,-4 7,-11 0,-5 -13,-112 -13,-107 -14,-110 -2,-7 -20,-7 h -12 q -7,5 -7,13 0,1 3,24 3,23 3,53 0,30 -7,49 -7,19 -19,31 -12,12 -37,16 -25,4 -51,7 -26,3 -72,1 h -23 q -82,-1 -87,-3 -5,-2 -7,-8 -1,-1 -34,-131 L 320,363 h 55 q 3,0 23,0 20,0 28,1 8,1 22,3 14,2 24,7 10,5 17,12 13,12 22,33 9,21 13,38 4,17 5,18 3,5 19,5 h 12 q 7,-5 7,-10 0,-3 -31,-131 -31,-128 -34,-132 -2,-7 -20,-7 h -12 q -7,6 -7,12 0,3 5,22 5,19 5,40 0,29 -20,36 -20,7 -89,7 H 309 L 277,190 Q 245,66 245,60 245,46 334,46 h 25 q 6,-6 6,-7 0,-1 -2,-20 Q 359,6 353,0 H 336 Q 295,2 185,2 120,2 86,2 52,2 48,1 Z" /><path
       style="stroke-width:1"
       inkscape:connector-curvature="0"
       id="path18"
       transform="translate(761,226)"
       d="m -123,694 q 0,8 5,14 5,6 15,6 10,0 15,-8 5,-8 8,-19 3,-11 13,-27 10,-16 27,-27 11,-7 11,-18 0,-9 -7,-15 -7,-6 -17,-10 -10,-4 -30,-19 -20,-15 -38,-40 -14,-15 -22,-15 -8,0 -14,6 -6,6 -6,14 0,8 11,23 11,15 23,25 12,10 13,11 h -171 l -171,1 q -1,1 -3,3 -2,2 -5,3 -3,1 -3,5 0,4 -2,8 0,7 13,20 h 359 q -24,38 -24,59 z" /><g
       id="g24"
       transform="translate(762,-243)"><path
         style="stroke-width:1"
         inkscape:connector-curvature="0"
         id="path20-9"
         transform="scale(0.707)"
         d="m 56,342 q 0,86 33,158 33,72 85,115 52,43 109,66 57,23 108,24 3,0 9,0 6,0 8,-1 91,0 161,-68 l 13,-12 30,39 q 27,37 31,41 1,0 4,0 3,0 6,1 h 4 q 3,0 9,-6 V 419 l -6,-6 h -34 q -6,6 -7,17 -9,82 -48,142 -39,60 -95,79 -19,7 -50,7 -25,0 -50,-4 -25,-4 -60,-21 -35,-17 -62,-41 -27,-24 -49,-73 -22,-49 -28,-108 -4,-42 -4,-76 0,-76 19,-134 19,-58 46,-90 27,-32 64,-53 37,-21 68,-27 31,-6 61,-7 47,0 82,21 35,21 46,55 3,10 3,60 v 52 q -1,1 -5,4 -4,3 -6,4 -2,1 -9,3 -7,2 -16,2 -9,0 -24,1 -15,1 -39,1 h -26 v 46 h 12 l 160,-3 q 106,0 118,3 h 8 v -46 h -14 q -47,0 -53,-12 -2,-4 -2,-107 V 6 q -6,-6 -9,-6 -4,0 -18,10 -22,15 -39,32 L 587,54 Q 571,27 524,3 477,-21 406,-22 317,-22 238,22 159,66 108,151 57,236 56,342 Z" /><path
         style="stroke-width:1"
         inkscape:connector-curvature="0"
         id="path22"
         transform="matrix(0.5,0,0,0.5,555,306)"
         d="m 79,43 q -6,0 -27,6 -21,6 -22,12 0,7 55,232 55,225 61,235 15,32 52,32 20,0 42,-15 22,-15 22,-44 0,-5 -2,-15 -1,-7 -87,-223 Q 87,47 84,45 81,43 79,43 Z" /></g></g></svg>