<?xml version="1.0" encoding="UTF-8" standalone="no"?>
<svg
   xmlns:ooo="http://xml.openoffice.org/svg/export"
   xmlns:dc="http://purl.org/dc/elements/1.1/"
   xmlns:cc="http://creativecommons.org/ns#"
   xmlns:rdf="http://www.w3.org/1999/02/22-rdf-syntax-ns#"
   xmlns:svg="http://www.w3.org/2000/svg"
   xmlns="http://www.w3.org/2000/svg"
   xmlns:sodipodi="http://sodipodi.sourceforge.net/DTD/sodipodi-0.dtd"
   xmlns:inkscape="http://www.inkscape.org/namespaces/inkscape"
   version="1.2"
   width="90mm"
   height="35mm"
   viewBox="0 0 9000.0001 3500"
   preserveAspectRatio="xMidYMid"
   clip-path="url(#presentation_clip_path)"
   xml:space="preserve"
   id="svg294"
   sodipodi:docname="millikan-versuch-aufbau-skizze.svg"
   inkscape:version="0.92.3 (2405546, 2018-03-11)"
   style="fill-rule:evenodd;stroke-width:28.22200012;stroke-linejoin:round"><metadata
   id="metadata298"><rdf:RDF><cc:Work
       rdf:about=""><dc:format>image/svg+xml</dc:format><dc:type
         rdf:resource="http://purl.org/dc/dcmitype/StillImage" /><dc:title /></cc:Work></rdf:RDF></metadata><sodipodi:namedview
   pagecolor="#ffffff"
   bordercolor="#666666"
   borderopacity="1"
   objecttolerance="10"
   gridtolerance="10"
   guidetolerance="10"
   inkscape:pageopacity="0"
   inkscape:pageshadow="2"
   inkscape:window-width="1920"
   inkscape:window-height="1001"
   id="namedview296"
   showgrid="false"
   inkscape:zoom="5.0846543"
   inkscape:cx="97.452894"
   inkscape:cy="57.573757"
   inkscape:window-x="-9"
   inkscape:window-y="-9"
   inkscape:window-maximized="1"
   inkscape:current-layer="svg294"
   fit-margin-top="0"
   fit-margin-left="0"
   fit-margin-right="0"
   fit-margin-bottom="0" />
 <defs
   class="ClipPathGroup"
   id="defs5"><marker
   inkscape:stockid="Arrow1Mend"
   orient="auto"
   refY="0"
   refX="0"
   id="marker6942"
   style="overflow:visible"
   inkscape:isstock="true"><path
     id="path6940"
     d="M 0,0 5,-5 -12.5,0 5,5 Z"
     style="fill:#000000;fill-opacity:1;fill-rule:evenodd;stroke:#000000;stroke-width:1.00000003pt;stroke-opacity:1"
     transform="matrix(-0.4,0,0,-0.4,-4,0)"
     inkscape:connector-curvature="0" /></marker><marker
   inkscape:isstock="true"
   style="overflow:visible"
   id="marker6902"
   refX="0"
   refY="0"
   orient="auto"
   inkscape:stockid="Arrow1Mend"
   inkscape:collect="always"><path
     transform="matrix(-0.4,0,0,-0.4,-4,0)"
     style="fill:#000000;fill-opacity:1;fill-rule:evenodd;stroke:#000000;stroke-width:1.00000003pt;stroke-opacity:1"
     d="M 0,0 5,-5 -12.5,0 5,5 Z"
     id="path6900"
     inkscape:connector-curvature="0" /></marker><marker
   inkscape:stockid="Arrow1Mend"
   orient="auto"
   refY="0"
   refX="0"
   id="Arrow1Mend"
   style="overflow:visible"
   inkscape:isstock="true"
   inkscape:collect="always"><path
     id="path5558"
     d="M 0,0 5,-5 -12.5,0 5,5 Z"
     style="fill:#000000;fill-opacity:1;fill-rule:evenodd;stroke:#000000;stroke-width:1.00000003pt;stroke-opacity:1"
     transform="matrix(-0.4,0,0,-0.4,-4,0)"
     inkscape:connector-curvature="0" /></marker>
  <clipPath
   id="presentation_clip_path"
   clipPathUnits="userSpaceOnUse">
   <rect
   x="0"
   y="0"
   width="10000"
   height="4000"
   id="rect2" />
  </clipPath>
 
  
 
   
  
    
   
     
     
     
     
     
     
     
     
     
     
     
     
     
     
     
     
     
     
     
     
     
     
     
     
     
     
     
     
     
     
     
     
    
      
     
      
     
      
     
      
     
      
     
      
     
      
     
      
     
      
     
      
     
      
     
      
     
      
     
      
     
      
     
      
     
      
     
      
     
      
     
      
     
      
     
      
     
      
     
      
     
      
     
      
     
      
     
      
     
      
     
      
     
      
     
      
     
       
       
      
       
       
      
       
       
       
      
       
      
       
      
       
      
       
      
       
      
       
      
       
       
      
       
      
       
      
       
      
       
      
       
      
       
      
       
      
       
      
       
      
       
      
       
      
       
      
       
      
       
       
       
       
       
       
       
       
       
       
      
       
       
       
       
       
       
       
       
       
       
      
       
      
       
       
      
       
       
      
       
      
       
       
      
       
      
       
       
      <marker
   inkscape:stockid="Arrow1Mend"
   orient="auto"
   refY="0"
   refX="0"
   id="Arrow1Mend-4"
   style="overflow:visible"
   inkscape:isstock="true"><path
     inkscape:connector-curvature="0"
     id="path5558-0"
     d="M 0,0 5,-5 -12.5,0 5,5 Z"
     style="fill:#000000;fill-opacity:1;fill-rule:evenodd;stroke:#000000;stroke-width:1.00000003pt;stroke-opacity:1"
     transform="matrix(-0.4,0,0,-0.4,-4,0)" /></marker>



</defs>
 <defs
   class="TextShapeIndex"
   id="defs9">
  <g
   ooo:slide="id1"
   ooo:id-list="id3 id4 id5 id6 id7 id8 id9 id10 id11 id12 id13 id14 id15 id16 id17 id18 id19 id20 id21 id22 id23 id24 id25 id26 id27 id28 id29 id30 id31 id32 id33 id34"
   id="g7" />
 </defs>
 <defs
   class="EmbeddedBulletChars"
   id="defs38">
  <g
   id="bullet-char-template(57356)"
   transform="matrix(4.8828125e-4,0,0,-4.8828125e-4,0,0)">
   <path
   d="M 580,1141 1163,571 580,0 -4,571 Z"
   id="path11"
   inkscape:connector-curvature="0" />
  </g>
  <g
   id="bullet-char-template(57354)"
   transform="matrix(4.8828125e-4,0,0,-4.8828125e-4,0,0)">
   <path
   d="M 8,1128 H 1137 V 0 H 8 Z"
   id="path14"
   inkscape:connector-curvature="0" />
  </g>
  <g
   id="bullet-char-template(10146)"
   transform="matrix(4.8828125e-4,0,0,-4.8828125e-4,0,0)">
   <path
   d="M 174,0 602,739 174,1481 1456,739 Z M 1358,739 309,1346 659,739 Z"
   id="path17"
   inkscape:connector-curvature="0" />
  </g>
  <g
   id="bullet-char-template(10132)"
   transform="matrix(4.8828125e-4,0,0,-4.8828125e-4,0,0)">
   <path
   d="M 2015,739 1276,0 H 717 l 543,543 H 174 v 393 h 1086 l -543,545 h 557 z"
   id="path20"
   inkscape:connector-curvature="0" />
  </g>
  <g
   id="bullet-char-template(10007)"
   transform="matrix(4.8828125e-4,0,0,-4.8828125e-4,0,0)">
   <path
   d="m 0,-2 c -7,16 -16,29 -25,39 l 381,530 c -94,256 -141,385 -141,387 0,25 13,38 40,38 9,0 21,-2 34,-5 21,4 42,12 65,25 l 27,-13 111,-251 280,301 64,-25 24,25 c 21,-10 41,-24 62,-43 C 886,937 835,863 770,784 769,783 710,716 594,584 L 774,223 c 0,-27 -21,-55 -63,-84 l 16,-20 C 717,90 699,76 672,76 641,76 570,178 457,381 L 164,-76 c -22,-34 -53,-51 -92,-51 -42,0 -63,17 -64,51 -7,9 -10,24 -10,44 0,9 1,19 2,30 z"
   id="path23"
   inkscape:connector-curvature="0" />
  </g>
  <g
   id="bullet-char-template(10004)"
   transform="matrix(4.8828125e-4,0,0,-4.8828125e-4,0,0)">
   <path
   d="M 285,-33 C 182,-33 111,30 74,156 52,228 41,333 41,471 c 0,78 14,145 41,201 34,71 87,106 158,106 53,0 88,-31 106,-94 l 23,-176 c 8,-64 28,-97 59,-98 l 735,706 c 11,11 33,17 66,17 42,0 63,-15 63,-46 V 965 c 0,-36 -10,-64 -30,-84 L 442,47 C 390,-6 338,-33 285,-33 Z"
   id="path26"
   inkscape:connector-curvature="0" />
  </g>
  <g
   id="bullet-char-template(9679)"
   transform="matrix(4.8828125e-4,0,0,-4.8828125e-4,0,0)">
   <path
   d="M 813,0 C 632,0 489,54 383,161 276,268 223,411 223,592 c 0,181 53,324 160,431 106,107 249,161 430,161 179,0 323,-54 432,-161 108,-107 162,-251 162,-431 0,-180 -54,-324 -162,-431 C 1136,54 992,0 813,0 Z"
   id="path29"
   inkscape:connector-curvature="0" />
  </g>
  <g
   id="bullet-char-template(8226)"
   transform="matrix(4.8828125e-4,0,0,-4.8828125e-4,0,0)">
   <path
   d="m 346,457 c -73,0 -137,26 -191,78 -54,51 -81,114 -81,188 0,73 27,136 81,188 54,52 118,78 191,78 73,0 134,-26 185,-79 51,-51 77,-114 77,-187 0,-75 -25,-137 -76,-188 -50,-52 -112,-78 -186,-78 z"
   id="path32"
   inkscape:connector-curvature="0" />
  </g>
  <g
   id="bullet-char-template(8211)"
   transform="matrix(4.8828125e-4,0,0,-4.8828125e-4,0,0)">
   <path
   d="M -4,459 H 1135 V 606 H -4 Z"
   id="path35"
   inkscape:connector-curvature="0" />
  </g>
 </defs>
 <defs
   class="TextEmbeddedBitmaps"
   id="defs40" />
 <g
   id="g45"
   transform="translate(-442.92893,-164.11117)">
  <g
   id="id2"
   class="Master_Slide">
   <g
   id="bg-id2"
   class="Background" />
   <g
   id="bo-id2"
   class="BackgroundObjects" />
  </g>
 </g>
 
<path
   d="m 6396.4802,447.94455 h -2500 v -300 h 5000 v 300 z"
   id="path47"
   inkscape:connector-curvature="0"
   style="fill:#c0c0c0;stroke:none" /><path
   d="m 6396.4802,447.94455 h -2500 v -300 h 5000 v 300 z"
   id="path49"
   inkscape:connector-curvature="0"
   style="fill:none;stroke:#000000" /><path
   d="m 6396.4802,3447.9446 h -2500 v -300 h 5000 v 300 z"
   id="path54"
   inkscape:connector-curvature="0"
   style="fill:#c0c0c0;stroke:none" /><path
   d="m 6396.4802,3447.9446 h -2500 v -300 h 5000 v 300 z"
   id="path56"
   inkscape:connector-curvature="0"
   style="fill:none;stroke:#000000" /><path
   d="m 3898.6936,2121.915 v 995.1243"
   id="path61"
   inkscape:connector-curvature="0"
   style="fill:none;stroke:#000000;stroke-width:20.00250053;stroke-miterlimit:4;stroke-dasharray:none;marker-end:url(#Arrow1Mend)"
   sodipodi:nodetypes="cc" /><text
   class="TextShape"
   id="text76"
   x="-80.919403"
   y="-234.12378"><tspan
     class="TextParagraph"
     font-size="635px"
     font-style="italic"
     font-weight="400"
     id="tspan74"
     style="font-style:italic;font-weight:400;font-size:635px;font-family:'Times New Roman', serif"><tspan
       class="TextPosition"
       x="3719.0811"
       y="2007.8762"
       id="tspan72"><tspan
         id="tspan70"
         style="fill:#000000;stroke:none">d</tspan></tspan></tspan></text>
<path
   d="M 3896.4802,3297.9446 H 388.54064"
   id="path86"
   inkscape:connector-curvature="0"
   style="fill:none;stroke:#000000;stroke-width:20"
   sodipodi:nodetypes="cc" /><path
   d="M 3896.4924,297.94455 H 388.54064"
   id="path91"
   inkscape:connector-curvature="0"
   style="fill:none;stroke:#000000;stroke-width:20"
   sodipodi:nodetypes="cc" /><path
   d="M 396.48016,3297.9446 V 297.94455"
   id="path96"
   inkscape:connector-curvature="0"
   style="fill:none;stroke:#000000;stroke-width:20" /><text
   class="TextShape"
   id="text107"
   x="-353.51984"
   y="-202.05545"><tspan
     class="TextParagraph"
     font-size="635px"
     font-style="italic"
     font-weight="400"
     id="tspan105"
     style="font-style:italic;font-weight:400;font-size:635px;font-family:'Times New Roman', serif"><tspan
       class="TextPosition"
       x="787.48016"
       y="2018.9446"
       id="tspan103"><tspan
         id="tspan101"
         style="fill:#000000;stroke:none">U</tspan></tspan></tspan></text>
<path
   d="m 6396.4802,547.94455 c 709,0 1250,541.00005 1250,1250.00005 0,709 -541,1250 -1250,1250 -709,0 -1250,-541 -1250,-1250 0,-709 541,-1250.00005 1250,-1250.00005 z m -1250,0 z m 2501,2501.00005 z"
   id="path112"
   inkscape:connector-curvature="0"
   style="fill:#e6e6e6;stroke:none" /><path
   d="m 6396.4802,547.94455 c 709,0 1250,541.00005 1250,1250.00005 0,709 -541,1250 -1250,1250 -709,0 -1250,-541 -1250,-1250 0,-709 541,-1250.00005 1250,-1250.00005 z"
   id="path114"
   inkscape:connector-curvature="0"
   style="fill:none;stroke:#000000;stroke-width:20" /><path
   d="m 5396.4802,1797.9446 h 2000"
   id="path119"
   inkscape:connector-curvature="0"
   style="fill:none;stroke:#000000;stroke-width:10" /><path
   d="m 5396.4802,1697.9446 h 2000"
   id="path124"
   inkscape:connector-curvature="0"
   style="fill:none;stroke:#000000;stroke-width:10" /><path
   d="m 5396.4802,1597.9446 h 2000"
   id="path129"
   inkscape:connector-curvature="0"
   style="fill:none;stroke:#000000;stroke-width:10" /><path
   d="m 5396.4802,1497.9446 h 2000"
   id="path134"
   inkscape:connector-curvature="0"
   style="fill:none;stroke:#000000;stroke-width:10" /><path
   d="m 5396.4802,1397.9446 h 2000"
   id="path139"
   inkscape:connector-curvature="0"
   style="fill:none;stroke:#000000;stroke-width:10" /><path
   d="m 5396.4802,1297.9446 h 2000"
   id="path144"
   inkscape:connector-curvature="0"
   style="fill:none;stroke:#000000;stroke-width:10" /><path
   d="m 5396.4802,1897.9446 h 2000"
   id="path149"
   inkscape:connector-curvature="0"
   style="fill:none;stroke:#000000;stroke-width:10" /><path
   d="m 5396.4802,1997.9446 h 2000"
   id="path154"
   inkscape:connector-curvature="0"
   style="fill:none;stroke:#000000;stroke-width:10" /><path
   d="m 5396.4802,2097.9446 h 2000"
   id="path159"
   inkscape:connector-curvature="0"
   style="fill:none;stroke:#000000;stroke-width:10" /><path
   d="m 5396.4802,2197.9446 h 2000"
   id="path164"
   inkscape:connector-curvature="0"
   style="fill:none;stroke:#000000;stroke-width:10" /><path
   d="m 5396.4802,2297.9446 h 2000"
   id="path169"
   inkscape:connector-curvature="0"
   style="fill:none;stroke:#000000;stroke-width:10" /><path
   d="m 5396.4802,2397.9446 h 2000"
   id="path174"
   inkscape:connector-curvature="0"
   style="fill:none;stroke:#000000;stroke-width:10" /><path
   d="m 5396.4802,1197.9446 h 2000"
   id="path179"
   inkscape:connector-curvature="0"
   style="fill:none;stroke:#000000;stroke-width:10" /><path
   d="m 7446.4802,2297.9446 h 51"
   id="path184"
   inkscape:connector-curvature="0"
   style="fill:none;stroke:#000000;stroke-width:10" /><path
   d="m 7548.4802,2297.9446 h 51"
   id="path186"
   inkscape:connector-curvature="0"
   style="fill:none;stroke:#000000;stroke-width:10" /><path
   d="m 7650.4802,2297.9446 h 51"
   id="path188"
   inkscape:connector-curvature="0"
   style="fill:none;stroke:#000000;stroke-width:10" /><path
   d="m 7752.4802,2297.9446 h 51"
   id="path190"
   inkscape:connector-curvature="0"
   style="fill:none;stroke:#000000;stroke-width:10" /><path
   d="m 7854.4802,2297.9446 h 51"
   id="path192"
   inkscape:connector-curvature="0"
   style="fill:none;stroke:#000000;stroke-width:10" /><path
   d="m 7956.4802,2297.9446 h 51"
   id="path194"
   inkscape:connector-curvature="0"
   style="fill:none;stroke:#000000;stroke-width:10" /><path
   d="m 8058.4802,2297.9446 h 51"
   id="path196"
   inkscape:connector-curvature="0"
   style="fill:none;stroke:#000000;stroke-width:10" /><path
   d="m 8160.4802,2297.9446 h 51"
   id="path198"
   inkscape:connector-curvature="0"
   style="fill:none;stroke:#000000;stroke-width:10" /><path
   d="m 8262.4802,2297.9446 h 51"
   id="path200"
   inkscape:connector-curvature="0"
   style="fill:none;stroke:#000000;stroke-width:10" /><path
   d="m 8364.4802,2297.9446 h 32"
   id="path202"
   inkscape:connector-curvature="0"
   style="fill:none;stroke:#000000;stroke-width:10" /><path
   d="m 7446.4802,2397.9446 h 51"
   id="path207"
   inkscape:connector-curvature="0"
   style="fill:none;stroke:#000000;stroke-width:10" /><path
   d="m 7548.4802,2397.9446 h 51"
   id="path209"
   inkscape:connector-curvature="0"
   style="fill:none;stroke:#000000;stroke-width:10" /><path
   d="m 7650.4802,2397.9446 h 51"
   id="path211"
   inkscape:connector-curvature="0"
   style="fill:none;stroke:#000000;stroke-width:10" /><path
   d="m 7752.4802,2397.9446 h 51"
   id="path213"
   inkscape:connector-curvature="0"
   style="fill:none;stroke:#000000;stroke-width:10" /><path
   d="m 7854.4802,2397.9446 h 51"
   id="path215"
   inkscape:connector-curvature="0"
   style="fill:none;stroke:#000000;stroke-width:10" /><path
   d="m 7956.4802,2397.9446 h 51"
   id="path217"
   inkscape:connector-curvature="0"
   style="fill:none;stroke:#000000;stroke-width:10" /><path
   d="m 8058.4802,2397.9446 h 51"
   id="path219"
   inkscape:connector-curvature="0"
   style="fill:none;stroke:#000000;stroke-width:10" /><path
   d="m 8160.4802,2397.9446 h 51"
   id="path221"
   inkscape:connector-curvature="0"
   style="fill:none;stroke:#000000;stroke-width:10" /><path
   d="m 8262.4802,2397.9446 h 51"
   id="path223"
   inkscape:connector-curvature="0"
   style="fill:none;stroke:#000000;stroke-width:10" /><path
   d="m 8364.4802,2397.9446 h 32"
   id="path225"
   inkscape:connector-curvature="0"
   style="fill:none;stroke:#000000;stroke-width:10" /><text
   class="TextShape"
   id="text236"
   x="-353.51984"
   y="-202.05545"><tspan
     class="TextParagraph"
     font-size="635px"
     font-style="italic"
     font-weight="400"
     id="tspan234"
     style="font-style:italic;font-weight:400;font-size:635px;font-family:'Times New Roman', serif"><tspan
       class="TextPosition"
       x="8498.4805"
       y="2468.9446"
       id="tspan232"><tspan
         id="tspan230"
         style="fill:#000000;stroke:none">s</tspan></tspan></tspan></text>
<path
   d="M 8380.446,1991.8064 V 2267.107"
   id="path241"
   inkscape:connector-curvature="0"
   style="fill:none;stroke:#000000;stroke-width:20;marker-end:url(#marker6902)"
   sodipodi:nodetypes="cc" /><path
   d="m 8380.4553,2700.0558 -0.01,-274.2823"
   id="path248"
   inkscape:connector-curvature="0"
   style="fill:none;stroke:#000000;stroke-width:20;marker-end:url(#marker6942)"
   sodipodi:nodetypes="cc" /><path
   d="m 396.48016,1547.9446 c 142,0 250,108 250,250 0,142 -108,250 -250,250 -142,0 -250,-108 -250,-250 0,-142 108,-250 250,-250 z"
   id="path255"
   inkscape:connector-curvature="0"
   style="fill:none;stroke:#000000;stroke-width:20" /><g
   id="g1053"
   transform="matrix(1.3561935,0,0,1.3561935,-845.73253,1377.2276)"><path
     style="fill:#ffffff;stroke:none"
     inkscape:connector-curvature="0"
     id="path260"
     d="m 2146.4802,47.94455 c 142,0 250,108 250,250 0,142 -108,250 -250,250 -142,0 -250,-108 -250,-250 0,-142 108,-250 250,-250 z m -250,0 z m 501,501 z" /><path
     style="fill:none;stroke:#000000;stroke-width:20"
     inkscape:connector-curvature="0"
     id="path262"
     d="m 2146.4802,47.94455 c 142,0 250,108 250,250 0,142 -108,250 -250,250 -142,0 -250,-108 -250,-250 0,-142 108,-250 250,-250 z" /><text
     y="-220.18657"
     x="-358.96075"
     id="text275"
     class="TextShape"><tspan
       style="font-weight:400;font-size:423px;font-family:'Times New Roman', serif"
       id="tspan273"
       font-weight="400"
       font-size="423px"
       class="TextParagraph"><tspan
         id="tspan271"
         y="450.81345"
         x="1967.0392"
         class="TextPosition"><tspan
           style="font-size:106px;fill:#000000;stroke:none"
           id="tspan267"
           font-size="106px"> </tspan><tspan
           style="fill:#000000;stroke:none"
           id="tspan269">V</tspan></tspan></tspan></text>
</g><path
   d="m 96.48016,2097.9446 539,-539"
   id="path280"
   inkscape:connector-curvature="0"
   style="fill:none;stroke:#000000;stroke-width:20" /><path
   d="m 696.48016,1497.9446 -85,42 43,43 z"
   id="path282"
   inkscape:connector-curvature="0"
   style="fill:#000000;stroke:none" /><path
   d="M 3898.6936,1475.1374 V 480.01287"
   id="path61-0"
   inkscape:connector-curvature="0"
   style="fill:none;stroke:#000000;stroke-width:20.00250244;stroke-miterlimit:4;stroke-dasharray:none;marker-end:url(#Arrow1Mend-4)"
   sodipodi:nodetypes="cc" /><path
   d="M 2063.4921,3299.3196 V 2114.3507"
   id="path96-7"
   inkscape:connector-curvature="0"
   style="fill:none;fill-rule:evenodd;stroke:#000000;stroke-width:19.99999809;stroke-linejoin:round"
   sodipodi:nodetypes="cc" /><path
   d="M 2063.4842,1459.6392 V 309.06846"
   id="path96-7-0"
   inkscape:connector-curvature="0"
   style="fill:none;fill-rule:evenodd;stroke:#000000;stroke-width:19.99999619;stroke-linejoin:round"
   sodipodi:nodetypes="cc" /><ellipse
   style="opacity:1;fill:#000000;fill-opacity:1;stroke:#000000;stroke-width:104.27331543;stroke-linecap:round;stroke-miterlimit:4;stroke-dasharray:none;stroke-dashoffset:0;stroke-opacity:1"
   id="path1089"
   cx="-578.23126"
   cy="501.13379"
   rx="36.719643"
   ry="614.95093" /><ellipse
   style="opacity:1;fill:#000000;fill-opacity:1;stroke:#000000;stroke-width:28.87160873;stroke-linecap:round;stroke-miterlimit:4;stroke-dasharray:none;stroke-dashoffset:0;stroke-opacity:1"
   id="path1097"
   cx="2063.4297"
   cy="296.81"
   rx="38.480865"
   ry="38.480862" /><ellipse
   style="opacity:1;fill:#000000;fill-opacity:1;fill-rule:evenodd;stroke:#000000;stroke-width:28.87160492;stroke-linecap:round;stroke-linejoin:round;stroke-miterlimit:4;stroke-dasharray:none;stroke-dashoffset:0;stroke-opacity:1"
   id="path1097-3"
   cx="2063.2141"
   cy="3294.4595"
   rx="38.480862"
   ry="38.480858" /></svg>