<?xml version="1.0" encoding="UTF-8" standalone="no"?>
<!-- Created with Inkscape (http://www.inkscape.org/) -->

<svg
   xmlns:dc="http://purl.org/dc/elements/1.1/"
   xmlns:cc="http://creativecommons.org/ns#"
   xmlns:rdf="http://www.w3.org/1999/02/22-rdf-syntax-ns#"
   xmlns:svg="http://www.w3.org/2000/svg"
   xmlns="http://www.w3.org/2000/svg"
   xmlns:sodipodi="http://sodipodi.sourceforge.net/DTD/sodipodi-0.dtd"
   xmlns:inkscape="http://www.inkscape.org/namespaces/inkscape"
   version="1.1"
   id="svg2"
   xml:space="preserve"
   width="282.12"
   height="171.81599"
   viewBox="0 0 282.11999 171.81599"
   sodipodi:docname="JHS-Logo_2019_neg.svg"
   inkscape:export-filename="C:\Users\isauer\OneDrive - joachimherzstiftung.onmicrosoft.com\Illustrationen\JHS-Logo_2019_neg.png"
   inkscape:export-xdpi="325"
   inkscape:export-ydpi="325"
   inkscape:version="0.92.1 r15371"><metadata
     id="metadata8"><rdf:RDF><cc:Work
         rdf:about=""><dc:format>image/svg+xml</dc:format><dc:type
           rdf:resource="http://purl.org/dc/dcmitype/StillImage" /><dc:title></dc:title></cc:Work></rdf:RDF></metadata><defs
     id="defs6"><clipPath
       clipPathUnits="userSpaceOnUse"
       id="clipPath32"><path
         d="M 186.862,255.773 H 398.499 V 384.665 H 186.862 Z"
         id="path30"
         inkscape:connector-curvature="0" /></clipPath><clipPath
       clipPathUnits="userSpaceOnUse"
       id="clipPath70"><path
         d="m 443.624,255.424 h 211.59 v 128.862 h -211.59 z"
         id="path68"
         inkscape:connector-curvature="0" /></clipPath></defs><sodipodi:namedview
     pagecolor="#ffffff"
     bordercolor="#666666"
     borderopacity="1"
     objecttolerance="10"
     gridtolerance="10"
     guidetolerance="10"
     inkscape:pageopacity="0"
     inkscape:pageshadow="2"
     inkscape:window-width="640"
     inkscape:window-height="480"
     id="namedview4"
     showgrid="false"
     units="mm"
     inkscape:zoom="2.104066"
     inkscape:cx="-29.14331"
     inkscape:cy="49.069447"
     inkscape:current-layer="g10"
     fit-margin-top="0"
     fit-margin-left="0"
     fit-margin-right="0"
     fit-margin-bottom="0" /><g
     id="g10"
     inkscape:groupmode="layer"
     inkscape:label="JHS_CD_Manual_vorläufig"
     transform="matrix(1.3333333,0,0,-1.3333333,-591.49865,512.38132)"><g
       id="g58"
       transform="translate(472.26,284.0591)"><path
         d="m 0,0 71.591,0.001 v 71.59 L 0,71.591 Z"
         style="fill:#ffffff;fill-opacity:1;fill-rule:nonzero;stroke:none"
         id="path60"
         inkscape:connector-curvature="0" /></g><path
       d="m 626.577,284.059 h -70 v 14.318 h 70 z"
       style="fill:#ffffff;fill-opacity:1;fill-rule:nonzero;stroke:none"
       id="path62"
       inkscape:connector-curvature="0" /><g
       id="g64"><g
         id="g66"
         clip-path="url(#clipPath70)"><g
           id="g72"
           transform="translate(487.7159,324.5771)"><path
             d="M 0,0 V 9.337 H -1.254 V 5.273 h -5.125 v 4.064 h -1.27 V 0 h 1.27 v 4.124 h 5.125 L -1.254,0 Z M 8.635,0 V 1.18 H 3.99 V 4.094 H 7.859 V 5.273 H 3.99 v 2.884 h 4.645 v 1.18 H 2.719 V 0 Z M 12.161,3.601 13.76,3.705 16.031,0 h 1.509 l -2.525,3.915 c 1.284,0.417 2.105,1.285 2.105,2.688 0,1.659 -1.18,2.734 -3.435,2.734 H 10.891 V 0 h 1.27 z m 0,1.12 v 3.451 h 1.373 c 1.42,0 2.317,-0.523 2.317,-1.628 0,-1.151 -0.926,-1.733 -2.152,-1.778 z M 25.412,0 v 1.18 h -5.26 l 5.275,7.172 v 0.985 h -6.782 v -1.18 h 5.199 L 18.556,0.956 V 0 Z"
             style="fill:#5c2874;fill-opacity:1;fill-rule:nonzero;stroke:none"
             id="path74"
             inkscape:connector-curvature="0" /></g><g
           id="g76"
           transform="translate(508.5068,339.2524)"><path
             d="m 0,0 c -2.82,0 -4.716,1.974 -4.716,4.911 0,2.918 1.941,4.956 4.716,4.956 1.067,0 2.21,-0.3 2.98,-0.784 L 2.592,7.885 2.576,7.838 2.533,7.866 C 1.691,8.416 0.933,8.65 0,8.65 c -2.036,0 -3.35,-1.443 -3.35,-3.679 0,-2.282 1.326,-3.754 3.379,-3.754 0.91,0 1.889,0.338 2.621,0.902 L 2.703,2.161 2.712,2.095 2.922,0.826 C 2.122,0.294 1.037,0 0,0 m -19.881,0 c -2.829,0 -4.73,1.974 -4.73,4.911 0,2.872 1.989,4.956 4.73,4.956 2.83,0 4.732,-1.968 4.732,-4.896 C -15.149,2.091 -17.14,0 -19.881,0 m -0.03,8.65 c -1.995,0 -3.336,-1.477 -3.336,-3.679 0,-2.246 1.364,-3.754 3.397,-3.754 1.973,0 3.351,1.519 3.351,3.694 0,2.237 -1.372,3.739 -3.412,3.739 M 29.038,0.224 H 28.996 27.713 27.674 L 27.673,0.266 27.584,7.816 24.823,0.386 23.515,0.36 20.698,7.835 20.597,0.266 20.596,0.224 h -0.039 -1.24 -0.041 l 0.001,0.043 0.313,9.336 0.002,0.039 h 0.039 1.686 l 2.87,-7.603 2.815,7.577 1.696,0.026 h 0.039 l 0.002,-0.039 0.298,-9.336 z m -12.19,0 h -0.04 -1.257 -0.04 v 0.042 9.336 0.04 h 0.04 1.257 0.04 V 9.602 0.266 Z m -4.006,0 h -0.04 -1.253 -0.041 V 0.266 4.348 H 6.465 V 0.266 0.224 H 6.425 5.154 5.114 v 0.042 9.336 0.04 h 0.04 1.271 0.04 V 9.602 5.579 h 5.043 v 4.023 0.04 h 0.041 1.253 0.04 V 9.602 0.266 Z m -18.504,0 H -5.72 -7.021 l -0.918,2.477 -4.012,-0.026 -0.842,-2.424 -1.355,-0.027 h -0.057 l 0.022,0.054 3.511,9.338 1.486,0.026 3.505,-9.364 z m -5.812,3.682 h 3.096 l -1.541,4.263 z"
             style="fill:#5c2874;fill-opacity:1;fill-rule:nonzero;stroke:none"
             id="path78"
             inkscape:connector-curvature="0" /></g><g
           id="g80"
           transform="translate(477.7754,336.6194)"><path
             d="m 0,0 -0.006,1.36 c 1.725,0.068 2.598,1.08 2.598,3.01 v 7.927 H 3.934 V 4.02 C 3.934,1.506 2.501,0.043 0,0"
             style="fill:#5c2874;fill-opacity:1;fill-rule:nonzero;stroke:none"
             id="path82"
             inkscape:connector-curvature="0" /></g><g
           id="g84"
           transform="translate(534.6661,289.4122)"><path
             d="m 0,0 c -2.62,0 -4.383,1.834 -4.383,4.563 0,2.711 1.802,4.604 4.383,4.604 1.028,0 2.197,-0.303 2.908,-0.756 L 2.536,7.283 2.518,7.236 2.476,7.263 C 1.711,7.753 0.807,8.033 0,8.033 c -1.888,0 -3.108,-1.34 -3.108,-3.415 0,-2.116 1.23,-3.483 3.136,-3.483 0.797,0 1.457,0.239 1.871,0.441 L 1.875,3.553 h -2.387 -0.04 v 0.04 1.096 0.039 h 0.04 3.563 0.041 V 4.689 0.873 C 2.244,0.329 1.038,0 0,0 m -18.465,0 c -2.144,0 -3.424,1.298 -3.424,3.467 V 8.92 8.959 h 0.04 1.165 0.041 V 8.92 3.647 c 0,-1.607 0.777,-2.457 2.249,-2.457 1.377,0 2.136,0.843 2.136,2.374 V 8.92 8.959 h 0.04 1.167 0.041 V 8.92 3.593 C -15.01,1.276 -16.239,0 -18.465,0 m -34.93,0 c -1.028,0 -2.091,0.3 -2.919,0.826 l 0.37,1.115 0.018,0.048 0.042,-0.027 c 0.865,-0.571 1.642,-0.827 2.518,-0.827 1.087,0 1.846,0.583 1.846,1.416 0,0.862 -0.661,1.189 -2.05,1.556 -1.364,0.37 -2.626,0.937 -2.626,2.579 0,1.485 1.183,2.481 2.94,2.481 1.015,0 1.915,-0.252 2.755,-0.768 l -0.401,-1.077 -0.018,-0.046 -0.04,0.028 c -0.669,0.448 -1.523,0.714 -2.281,0.714 -1.094,0 -1.721,-0.454 -1.721,-1.248 0,-0.814 0.641,-1.124 2.077,-1.517 1.203,-0.318 2.583,-0.901 2.583,-2.617 C -50.302,1.084 -51.575,0 -53.395,0 m 47.359,0.126 h -0.039 -1.278 l -4.605,6.981 V 0.249 0.208 h -0.041 -1.151 -0.04 V 0.249 8.92 8.959 h 0.04 1.302 L -7.267,2.06 v 6.86 0.039 h 0.04 1.152 0.039 V 8.92 0.166 Z m -20.156,0.082 h -0.04 -1.165 -0.041 v 0.041 7.519 h -2.998 -0.041 v 0.04 1.112 0.039 h 0.041 7.242 0.04 V 8.92 7.808 7.768 h -0.04 -2.998 V 0.249 Z m -9.723,0 h -0.041 -1.18 -0.041 V 0.249 8.92 8.959 h 0.041 5.356 0.038 V 8.92 7.808 7.768 h -0.038 -4.135 V 5.033 h 3.412 0.04 V 4.993 3.898 3.857 h -0.04 -3.412 V 0.249 Z m -3.414,0 h -0.04 -1.166 -0.04 V 0.249 8.92 8.959 h 0.04 1.166 0.04 V 8.92 0.249 Z m -2.664,7.6 v -0.04 h -0.041 -2.997 V 0.249 0.208 h -0.041 -1.165 -0.039 v 0.041 7.519 h -2.998 -0.04 v 0.04 1.112 0.039 h 0.04 7.24 0.041 z"
             style="fill:#5c2874;fill-opacity:1;fill-rule:nonzero;stroke:none"
             id="path86"
             inkscape:connector-curvature="0" /></g><g
           id="g88"
           transform="translate(628.5178,316.8294)"><path
             d="M 0,0 C -0.68,0.677 -6.762,6.299 -8.041,7.48 -8.197,7.624 -8.37,7.751 -8.555,7.857 l -4.925,2.813 c -0.156,0.089 -0.258,0.245 -0.279,0.421 -0.377,3.226 -1.219,5.72 -3.082,8.581 -0.673,1.034 -1.207,2.15 -1.597,3.318 -0.066,0.196 -0.624,1.799 -0.702,2.029 -0.52,1.558 -1.256,3.757 -1.62,4.842 -0.111,0.331 0.072,0.688 0.407,0.795 0.75,0.239 1.998,0.888 2.736,2.622 0,0 0.323,1.315 2.463,1.829 0.947,0.251 1.238,1.491 1.223,2.514 -0.019,1.292 -1.251,1.328 -2.197,1.077 -0.143,-0.037 -0.277,-0.093 -0.401,-0.163 -0.312,-0.177 -0.639,-0.33 -0.986,-0.424 -1.058,-0.288 -2.784,-0.757 -4.689,-1.276 -0.951,-0.23 -1.472,-0.261 -1.905,-0.182 -0.407,0.062 -0.844,0.026 -1.254,-0.084 -0.411,-0.111 -0.805,-0.3 -1.122,-0.558 -0.386,-0.331 -0.945,-0.594 -2.21,-0.936 l -3.552,-0.973 c 0,0 1.078,-0.781 2.807,-0.781 0,0 -0.982,-1.721 -3.889,-2.27 0,0 1.515,-0.765 2.835,-0.642 0,0 -0.963,-2.498 -3.504,-3.004 0.452,-0.323 2.649,-0.741 3.836,0.012 0,0 -0.897,-1.732 -3.682,-2.257 0,0 1.36,-1.112 3.158,-0.814 0,0 -1.093,-0.896 -2.541,-0.625 0,0 -2.235,0.195 -2.826,2.108 -0.171,0.541 -0.539,1.902 -2.508,2.531 -0.93,0.297 -0.684,0.664 -0.684,0.664 0.118,0.176 0.335,0.329 0.721,0.368 0.38,0.039 0.693,0.282 0.528,0.604 -0.033,0.063 -0.088,0.171 -0.106,0.232 -0.017,0.078 0.044,0.093 0.088,0.162 0.071,0.107 -0.003,0.169 -0.012,0.193 0.03,0.031 0.083,0.194 0.024,0.221 -0.091,0.054 -0.098,0.146 -0.082,0.232 0.034,0.152 0.228,0.147 0.211,0.34 -0.011,0.054 -0.032,0.106 -0.166,0.205 -0.089,0.063 -0.237,0.187 -0.431,0.416 -0.081,0.127 -0.04,0.261 -0.049,0.314 0,0.154 -0.02,0.179 -0.05,0.265 l -0.31,0.6 c -0.158,0.302 -0.557,0.917 -1.379,0.978 -1.024,0.079 -1.775,-0.27 -2.233,-0.741 -0.461,-0.47 -0.96,-0.915 -1.644,-0.856 -0.429,0.036 -0.325,-0.223 -0.27,-0.31 0.133,-0.212 0.473,-0.415 0.835,-0.517 0.517,-0.143 0.344,-0.292 0.15,-0.358 -0.657,-0.218 -0.947,-0.619 0.243,-1.051 0.493,-0.179 0.492,-0.506 0.208,-0.463 -0.634,0.097 -0.191,-0.371 0.493,-0.595 0.513,-0.167 0.698,-0.417 0.635,-0.734 -0.199,-1.026 -0.996,-2.491 -1.432,-4.756 -0.405,-2.365 0.99,-2.938 2.801,-3.223 0.637,-0.1 0.665,-0.74 0.665,-1.293 0,-0.793 -1.211,-0.926 -3.233,-1.001 -6.132,-0.226 -9.265,-0.88 -11.458,-4.177 -0.124,-0.187 -0.36,-0.267 -0.573,-0.191 -0.509,0.182 -1.447,0.519 -2.181,0.798 -0.745,0.282 -1.542,0.548 -2.335,0.8 -2.168,0.688 -5.286,0.113 -7.089,-2.474 -1.106,-1.589 -1.895,-4.652 -6.465,-5.92 0,0 1.307,-1.281 3.206,-0.611 0,0 -2.235,-4.572 -7.16,-5.177 0,0 0.855,-1.801 4.002,-1.685 0,0 -2.219,-1.456 -5.465,-1.456 0,0 2.214,-3.29 6.388,-1.932 0,0 0,-0.928 -1.276,-1.618 0,0 3.272,-0.12 6.355,2.727 -0.149,-0.616 -0.422,-1.44 -0.916,-2.504 5.988,4.029 5.988,14.404 5.988,14.404 V 9.239 c 0.016,0.14 0.032,0.281 0.047,0.424 0.344,3.263 2.477,3.808 5.95,2.75 0.245,-0.075 0.389,-0.325 0.331,-0.572 -0.284,-1.197 -0.772,-4.707 2.124,-7.915 0.476,-0.47 0.291,-0.781 -0.038,-1.197 L -55.45,0.507 c -0.305,-0.367 -0.679,-0.674 -1.103,-0.896 -0.615,-0.322 -0.965,-0.611 -1.016,-1.469 -0.014,-0.223 -0.047,-0.445 -0.09,-0.664 l -0.199,-1.019 -0.522,-2.481 c -0.735,-2.874 -2.647,-3.93 -1.965,-5.725 0.357,-0.941 -1.072,-1.251 -1.167,-1.58 -0.248,-0.853 1.405,-2.493 1.996,-2.325 0.205,0.058 0.727,0.931 0.642,2.976 -0.014,0.375 3.687,9.161 3.687,9.161 0.137,0.322 0.367,0.595 0.661,0.789 l 3.883,2.54 -0.314,-0.915 c -0.167,-0.485 -0.454,-0.917 -0.811,-1.288 -0.185,-0.195 -0.325,-0.426 -0.411,-0.674 -0.194,-0.564 -0.067,-1.189 0.296,-1.665 l 3.732,-4.908 c 1.894,-2.872 0.839,-2.892 2.408,-4.013 1.28,-0.914 0.675,-2.536 0.96,-2.82 0.578,-0.571 2.991,-0.443 3.123,-0.099 0,0.92 -1.227,2.377 -1.833,2.855 l -4.713,8.166 c -0.171,0.297 -0.247,0.629 -0.232,0.954 0.023,0.504 0.286,0.968 0.684,1.283 l 3.012,2.389 c 1.711,1.358 3.102,3.096 3.891,5.118 0.489,1.255 2.188,1.659 3.256,1.659 h 4.424 c -0.541,-1.029 -1.335,-2.026 -1.335,-2.45 0,-0.415 3.166,-1.34 4.246,-1.34 0.26,0 0.425,0.07 0.529,0.137 0.189,0.122 0.157,0.406 -0.049,0.5 -0.344,0.158 -1.082,0.547 -1.476,1.12 -0.183,0.266 -0.22,0.553 -0.183,0.825 0.092,0.687 0.651,1.222 1.342,1.34 l 7.405,1.813 c 0.488,0.119 0.997,-0.095 1.248,-0.525 l 3.321,-5.673 C -17.828,1.1 -17.881,0.468 -18.257,0.02 l -2.072,-2.473 c -0.387,-0.385 -0.651,-0.575 -0.959,-0.645 -0.74,-0.224 -1.361,-1.038 -1.143,-1.864 -0.338,-0.201 -0.664,-0.069 -0.79,-0.031 -0.3,0.084 -0.844,0.292 -1.043,0.188 -0.371,-0.188 -1.395,-3.058 -0.744,-3.151 1.5,-0.213 3.267,1.31 3.267,1.31 l 6.451,6.538 c 0.35,0.355 0.483,0.868 0.349,1.346 l -1.424,5.041 c -0.117,0.414 0.265,0.796 0.686,0.688 l 5.386,-1.392 c 0.363,-0.094 0.702,-0.258 0.999,-0.483 0,0 5.176,-3.863 5.507,-4.14 0.672,-0.568 0.918,-1.027 1.008,-1.415 0.219,-0.807 1.04,-1.292 1.857,-1.114 l 0.002,-0.001 c 0.053,-0.046 0.083,-0.114 0.074,-0.183 -0.053,-0.477 -0.452,-1.068 -0.105,-1.23 1.385,-0.65 3.263,-0.431 3.263,-0.082 0,0.954 -1.434,2.2 -2.312,3.073"
             style="fill:#ffffff;fill-opacity:1;fill-rule:nonzero;stroke:none"
             id="path90"
             inkscape:connector-curvature="0" /></g></g></g></g></svg>